<svg width="93" height="34" viewBox="0 0 93 34" fill="none" xmlns="http://www.w3.org/2000/svg">
<g clip-path="url(#clip0)">
<path d="M0.000196607 16.4908C-0.0390936 15.159 0.196648 13.8272 0.707421 12.5737C1.10032 11.5553 1.72897 10.6152 2.51477 9.79264C3.26129 9.0484 4.12567 8.50001 5.06864 8.10831C6.0116 7.7166 7.03315 7.52075 8.0547 7.52075C10.4514 7.52075 12.3373 8.26499 13.7125 9.7143C15.0876 11.1636 15.7949 13.318 15.7949 16.1383C15.7949 16.4125 15.7949 16.7258 15.7556 17.0392C15.7163 17.3526 15.7163 17.6659 15.7163 17.9009H4.87219C4.95077 18.841 5.46154 19.7028 6.28663 20.212C7.26889 20.8387 8.40831 21.1521 9.54772 21.0737C10.4121 21.0737 11.2765 20.9954 12.1409 20.8387C12.8481 20.7212 13.5553 20.5254 14.184 20.2512L14.8126 24.0899C14.4983 24.2466 14.1447 24.3641 13.7911 24.4816C13.3196 24.5991 12.8481 24.7166 12.3766 24.7949C11.8658 24.8733 11.2765 24.9908 10.6871 25.03C10.0978 25.1083 9.50843 25.1083 8.87979 25.1083C7.54392 25.1475 6.20805 24.9125 4.91148 24.4424C3.85064 24.0507 2.90767 23.424 2.12187 22.6014C1.37535 21.818 0.825292 20.8779 0.471679 19.8595C0.196648 18.841 0.000196607 17.6659 0.000196607 16.4908ZM11.1979 14.6498C11.1586 14.2581 11.1193 13.8664 11.0015 13.4747C10.8836 13.083 10.6871 12.7696 10.4514 12.4562C10.1764 12.1429 9.86205 11.9078 9.50843 11.7512C9.07624 11.5553 8.60476 11.4378 8.13328 11.477C7.66179 11.477 7.19031 11.5553 6.75812 11.7512C6.40451 11.9078 6.05089 12.182 5.81515 12.4562C5.54012 12.7696 5.34367 13.1221 5.2258 13.5138C5.06864 13.9055 4.99006 14.2973 4.91148 14.689H11.1979V14.6498Z" fill="#EE392D"/>
<path d="M28.6033 25.1867C24.9886 25.1867 22.2382 24.2074 20.3523 22.2097C18.4664 20.212 17.5234 17.3917 17.5234 13.7097C17.4841 12.0254 17.7984 10.3802 18.3878 8.81341C18.8986 7.44244 19.7237 6.22815 20.7452 5.17055C21.7668 4.15211 22.9848 3.40788 24.3599 2.93783C25.8137 2.42861 27.346 2.15442 28.8783 2.15442C29.7427 2.15442 30.6071 2.23276 31.4322 2.38944C32.1001 2.50695 32.768 2.66364 33.436 2.85949C33.9467 3.01617 34.4182 3.21202 34.8897 3.40788C35.2826 3.60373 35.5576 3.76041 35.7148 3.83875L34.2611 7.83414C33.5145 7.44244 32.6894 7.12907 31.8644 6.89405C30.8428 6.61986 29.8213 6.50235 28.7997 6.50235C28.0139 6.50235 27.2674 6.61986 26.5602 6.89405C25.8137 7.12907 25.1457 7.55995 24.5957 8.10834C24.0063 8.73506 23.5348 9.4793 23.2205 10.3019C22.8669 11.3595 22.6704 12.4563 22.7097 13.553C22.7097 14.5323 22.8276 15.4724 23.0633 16.4125C23.2598 17.2351 23.6134 18.0185 24.1635 18.6844C24.6742 19.3503 25.3422 19.8595 26.128 20.212C27.0709 20.6037 28.0532 20.7996 29.0747 20.7604C29.7427 20.7604 30.3713 20.7212 31.0393 20.6429C31.6286 20.5646 32.1394 20.447 32.5716 20.3295C32.9645 20.212 33.3574 20.0945 33.7503 19.9378C34.1039 19.7811 34.4182 19.6636 34.6933 19.507L36.0684 23.5023C35.1254 24.0116 34.1039 24.4033 33.0824 24.6383C31.6286 25.03 30.0963 25.2258 28.6033 25.1867Z" fill="#05445F"/>
<path d="M44.3586 25.0691C43.2192 25.0691 42.0798 24.9124 40.9797 24.6382C40.1939 24.4032 39.5259 24.0115 38.9366 23.4631C38.4258 22.9539 38.0722 22.3272 37.915 21.6613C37.7186 20.8779 37.64 20.0553 37.64 19.2719V0.78341L42.3941 0V18.2535C42.3941 18.6452 42.4334 19.0369 42.4727 19.3894C42.512 19.7028 42.6692 20.0161 42.8263 20.2512C43.0228 20.5253 43.2978 20.7212 43.6121 20.8387C44.0443 20.9954 44.5158 21.1129 44.9873 21.1129L44.3586 25.0691Z" fill="#05445F"/>
<path d="M51.2344 24.7557H46.4803V7.99072H51.2344V24.7557Z" fill="#05445F"/>
<path d="M54.417 8.53924C55.4385 8.26504 56.4994 8.03002 57.5602 7.87334C58.8961 7.67748 60.2319 7.55997 61.6071 7.55997C62.8251 7.5208 64.0431 7.71666 65.1825 8.10836C66.0469 8.42172 66.8327 8.97011 67.4221 9.67518C67.9721 10.3802 68.4043 11.2028 68.6008 12.1038C68.8365 13.1222 68.9544 14.1798 68.9544 15.2374V24.7167H64.161V15.8641C64.161 14.3365 63.9645 13.2397 63.5323 12.613C63.1001 11.9862 62.3536 11.6729 61.2535 11.6729C60.8999 11.6729 60.5463 11.6729 60.1534 11.712C59.7605 11.7512 59.4068 11.7904 59.1318 11.8296V24.7558H54.3777V8.53924H54.417Z" fill="#05445F"/>
<path d="M76.7339 24.7557H71.9798V7.99072H76.7339V24.7557Z" fill="#05445F"/>
<path d="M79.1305 16.3733C79.1305 15.1982 79.327 14.0622 79.7199 12.9263C80.4664 10.8111 82.0773 9.12674 84.1597 8.22582C85.2991 7.75577 86.5564 7.52075 87.8137 7.52075C89.4246 7.52075 90.9962 7.83412 92.4499 8.46084L91.4677 12.2604C90.9962 12.0645 90.4854 11.947 89.9746 11.8295C89.3853 11.712 88.7959 11.6337 88.1673 11.6337C86.7528 11.6337 85.7313 12.0645 85.0241 12.9263C84.2776 13.9055 83.924 15.1198 84.0025 16.3733C84.0025 17.8618 84.3169 19.0369 84.9848 19.8986C85.6527 20.7604 86.7528 21.1521 88.403 21.1521C89.0317 21.1521 89.6603 21.1129 90.2497 20.9954C90.8783 20.9171 91.507 20.7212 92.057 20.4862L92.725 24.3641C92.057 24.6383 91.3498 24.8341 90.6426 24.9516C89.7389 25.1083 88.7959 25.2258 87.8923 25.1867C86.5564 25.2258 85.1812 24.9908 83.924 24.5208C82.8631 24.129 81.9202 23.4631 81.1736 22.6406C80.4664 21.8572 79.9163 20.8779 79.602 19.8595C79.2877 18.7235 79.1305 17.5484 79.1305 16.3733Z" fill="#05445F"/>
<path d="M41.4905 31.1405V28.947L42.0013 28.8295V31.1405H41.4905Z" fill="#03435F"/>
<path d="M63.886 27.4585C63.886 27.8502 63.5716 28.1244 63.218 28.1244C62.8644 28.1244 62.5501 27.811 62.5501 27.4585C62.5501 27.0668 62.8644 26.7926 63.218 26.7926C63.6109 26.7926 63.886 27.106 63.886 27.4585Z" fill="#FE110A"/>
<path d="M60.3498 28.7119C60.1141 28.7511 59.8783 28.7903 59.9176 28.8686C59.9176 28.9469 60.9784 28.9469 61.4892 29.2995C61.5285 29.3386 61.6071 29.3778 61.6071 29.4562C61.8821 30.2396 60.0748 32.4723 60.2712 32.5506C60.5463 32.629 62.5108 30.5138 63.1001 29.2995C63.1394 29.2211 63.2966 28.8294 63.218 28.7119C63.1001 28.6336 62.943 28.5552 62.7858 28.5552C62.6679 28.5552 62.5108 28.5552 62.3536 28.5552C61.6464 28.5161 60.9785 28.5944 60.3498 28.7119Z" fill="#FE110A"/>
<path d="M48.8378 29.8087L48.9164 29.417C48.5628 29.2995 48.1699 29.3779 47.8555 29.5737V31.1797H48.3663V29.8871C48.4842 29.7304 48.6806 29.7304 48.8378 29.8087Z" fill="#03435F"/>
<path d="M44.4765 28.947L44.9873 28.8687V29.3779H45.4981V29.8087H44.9873V30.4355C44.9873 30.5138 44.9873 30.5922 45.0266 30.6705C45.0659 30.7488 45.1838 30.788 45.2624 30.7488C45.3016 30.7488 45.3802 30.7488 45.4195 30.7488C45.4588 30.7488 45.5374 30.7097 45.5767 30.7097L45.6553 31.1014C45.5767 31.1405 45.5374 31.1405 45.4588 31.1797C45.3802 31.2189 45.2624 31.2189 45.1838 31.2189C45.0659 31.2189 44.948 31.2189 44.8302 31.1797C44.7516 31.1405 44.673 31.1014 44.5944 31.023C44.5551 30.9447 44.5158 30.8664 44.4765 30.788C44.4373 30.6705 44.4373 30.5922 44.4373 30.4746L44.4765 28.947Z" fill="#03435F"/>
<path d="M49.6629 30.788C49.7415 30.788 49.7808 30.788 49.8594 30.7489C49.8986 30.7097 49.9379 30.6705 49.8986 30.6313C49.8986 30.5922 49.8594 30.553 49.8201 30.5138C49.7415 30.4747 49.6629 30.4355 49.5843 30.3963C49.5057 30.3572 49.4272 30.3572 49.3879 30.318C49.3093 30.2788 49.27 30.2396 49.2307 30.2005C49.1914 30.1613 49.1521 30.083 49.1128 30.0438C49.0735 29.9654 49.0735 29.8871 49.0735 29.8088C49.0735 29.6521 49.1521 29.4954 49.27 29.4171C49.4272 29.2995 49.5843 29.2604 49.7808 29.2604C49.8986 29.2604 49.9772 29.2604 50.0951 29.2995C50.1737 29.2995 50.2523 29.3387 50.3308 29.3779L50.2523 29.7696L50.0951 29.7304C50.0165 29.7304 49.9379 29.6913 49.8594 29.6913C49.7022 29.6913 49.6236 29.7304 49.6236 29.8088V29.8479L49.6629 29.8871C49.7022 29.8871 49.7022 29.9263 49.7415 29.9263C49.7808 29.9654 49.8201 29.9654 49.8594 29.9654C49.9379 30.0046 50.0558 30.0438 50.1344 30.083C50.213 30.1221 50.2523 30.1613 50.2915 30.2005C50.3308 30.2396 50.3701 30.2788 50.3701 30.3572C50.3701 30.4355 50.4094 30.4747 50.4094 30.553C50.4094 30.7097 50.3308 30.8664 50.213 30.9447C50.0558 31.0622 49.8594 31.1014 49.6629 31.0622C49.545 31.0622 49.3879 31.0622 49.27 31.0231C49.1914 31.0231 49.1128 30.9839 49.0343 30.9447L49.1128 30.553C49.1914 30.5922 49.27 30.6313 49.3879 30.6313C49.5057 30.788 49.5843 30.788 49.6629 30.788Z" fill="#03435F"/>
<path d="M51.981 30.1612C51.9417 30.3179 51.9024 30.5138 51.8238 30.6705C51.7845 30.8271 51.7059 31.023 51.6667 31.1797H51.2738C51.2345 31.1013 51.1952 30.9838 51.1559 30.8271C51.1166 30.7096 51.0773 30.5529 50.9987 30.3963C50.9594 30.2396 50.8809 30.0829 50.8416 29.9262C50.8023 29.7695 50.7237 29.5737 50.6844 29.417H51.2345C51.2345 29.4953 51.2738 29.5737 51.2738 29.6912C51.313 29.7695 51.313 29.887 51.3523 30.0046C51.3916 30.1221 51.3916 30.2004 51.4309 30.3179C51.4702 30.4354 51.4702 30.5138 51.5095 30.5921C51.5488 30.4746 51.5488 30.3963 51.5881 30.2787C51.6274 30.1612 51.6274 30.0829 51.6667 29.9654C51.7059 29.8479 51.7059 29.7695 51.7452 29.6912L51.8238 29.417H52.1774C52.1774 29.4953 52.2167 29.5737 52.256 29.6912C52.2953 29.7695 52.2953 29.887 52.3346 29.9654C52.3739 30.0829 52.3739 30.1612 52.4132 30.2787C52.4525 30.3963 52.4525 30.4746 52.4918 30.5921C52.531 30.5138 52.531 30.3963 52.5703 30.3179C52.6096 30.2396 52.6096 30.1221 52.6489 30.0046C52.6882 29.887 52.6882 29.8087 52.7275 29.6912C52.7668 29.5737 52.7668 29.4953 52.7668 29.417H53.2776C53.2383 29.5737 53.1597 29.7695 53.1204 29.9262C53.0811 30.0829 53.0025 30.2787 52.9632 30.3963C52.9239 30.5529 52.8454 30.7096 52.8061 30.8271C52.7668 30.9446 52.7275 31.0622 52.6882 31.1797H52.2953L52.1381 30.6705C52.0596 30.4746 52.0203 30.3179 51.981 30.1612Z" fill="#03435F"/>
<path d="M54.1419 29.3779H53.6312V31.1406H54.1419V29.3779Z" fill="#03435F"/>
<path d="M54.5349 28.947L55.0456 28.8687V29.3779H55.5564V29.8087H55.0456V30.4355C55.0456 30.5138 55.0456 30.5922 55.0849 30.6705C55.1242 30.7488 55.2421 30.788 55.3207 30.7488C55.36 30.7488 55.4385 30.7488 55.4778 30.7488C55.5171 30.7488 55.5957 30.7097 55.635 30.7097L55.7136 31.1014C55.635 31.1405 55.5957 31.1405 55.5171 31.1797C55.4385 31.2189 55.3207 31.2189 55.2421 31.2189C55.1242 31.2189 55.0063 31.2189 54.8885 31.1797C54.8099 31.1405 54.7313 31.1014 54.6527 31.023C54.6134 30.9447 54.5742 30.8664 54.5349 30.788C54.4956 30.6705 54.4956 30.5922 54.4956 30.4746L54.5349 28.947Z" fill="#03435F"/>
<path d="M55.8707 30.2787C55.8707 30.1612 55.91 30.0437 55.9493 29.9262C56.0279 29.6912 56.1851 29.5345 56.4208 29.417C56.5387 29.3778 56.6566 29.3386 56.8137 29.3386C56.9709 29.3386 57.1673 29.3778 57.3245 29.417L57.2066 29.8087C57.1673 29.7695 57.0887 29.7695 57.0495 29.7695C56.9709 29.7695 56.9316 29.7695 56.853 29.7695C56.7351 29.7695 56.6173 29.8087 56.5387 29.9262C56.4601 30.0437 56.4208 30.1612 56.4208 30.2787C56.4208 30.3962 56.4601 30.5529 56.5387 30.6704C56.6173 30.7488 56.7744 30.8271 56.8923 30.7879C56.9709 30.7879 57.0102 30.7879 57.0887 30.7879C57.1673 30.7879 57.2066 30.7488 57.2852 30.7488L57.3638 31.1405C57.2852 31.1796 57.2066 31.1796 57.128 31.2188C57.0494 31.2188 56.9316 31.258 56.853 31.258C56.6958 31.258 56.578 31.2188 56.4208 31.1796C56.3029 31.1405 56.2244 31.0621 56.1458 30.9838C56.0672 30.9054 56.0279 30.7879 55.9886 30.6704C55.9493 30.5529 55.9493 30.4354 55.9493 30.3179" fill="#03435F"/>
<path d="M57.6388 31.1405V28.9078L58.1496 28.8295V29.3779L58.2674 29.3387C58.3067 29.3387 58.3853 29.3387 58.4246 29.3387C58.5425 29.3387 58.6603 29.3387 58.7782 29.417C58.8568 29.4562 58.9354 29.4954 59.014 29.5737C59.0925 29.652 59.1318 29.7304 59.1318 29.8479C59.1711 29.9654 59.1711 30.0829 59.1711 30.1613V31.1797H58.6603V30.2396C58.6603 30.1221 58.6603 30.0046 58.5818 29.8871C58.5425 29.8087 58.4246 29.7696 58.346 29.7696C58.3067 29.7696 58.2674 29.7696 58.2281 29.7696H58.1496V31.1014L57.6388 31.1405Z" fill="#03435F"/>
<path d="M42.4727 31.1406V29.5346C42.7085 29.3779 42.9835 29.2995 43.2978 29.3387C43.6907 29.2995 44.0444 29.5737 44.0836 29.9654C44.0836 30.0046 44.0836 30.083 44.0836 30.1221V31.1406H43.5729V30.1613C43.5729 29.8088 43.4157 29.7696 43.2586 29.7696C43.18 29.7696 43.0621 29.8088 43.0228 29.8479V31.1797L42.4727 31.1406Z" fill="#03435F"/>
<path d="M46.6768 29.6912C46.3625 29.6912 46.3232 30.0437 46.3232 30.0437H47.0304C47.0304 30.0437 46.9911 29.6912 46.6768 29.6912ZM47.4626 30.3962H46.3232C46.3232 30.3962 46.3625 30.7879 46.8339 30.7879C46.9911 30.7879 47.1876 30.7488 47.3447 30.7096L47.384 31.1013C47.1876 31.1796 46.9911 31.2188 46.7947 31.2188C46.3232 31.258 45.891 30.9054 45.8517 30.4354C45.8517 30.3571 45.8517 30.3179 45.8517 30.2395C45.8124 29.7695 46.166 29.3778 46.5982 29.3386C46.6375 29.3386 46.6768 29.3386 46.7161 29.3386C47.4626 29.3386 47.5019 30.0829 47.4626 30.3962Z" fill="#03435F"/>
<path d="M37.9151 30.8272C37.7579 30.9839 37.5615 31.1014 37.3257 31.0622C37.0507 31.1014 36.815 30.9056 36.7757 30.6314C36.7757 30.5922 36.7757 30.5922 36.7757 30.553C36.7757 30.2397 37.0507 30.0438 37.4436 30.0438C37.6008 30.0438 37.7579 30.0438 37.8758 30.083V29.7696C37.8758 29.4954 37.7186 29.4171 37.4436 29.4171C37.2472 29.4171 37.09 29.4562 36.9328 29.5738H36.8542V29.4562C37.0507 29.3387 37.2472 29.2996 37.4436 29.2996C37.7972 29.2996 37.9937 29.4171 37.9937 29.7696V30.9839H37.9544C37.8758 30.9839 37.8365 30.9447 37.8365 30.8272H37.9151ZM37.9151 30.6705V30.2397C37.7579 30.2005 37.6401 30.2005 37.4829 30.2005C37.1686 30.2005 36.9721 30.318 36.9721 30.5922C36.9721 30.788 37.09 30.9447 37.2864 30.9839H37.365C37.5615 30.9447 37.7972 30.8272 37.9151 30.6705Z" fill="#03435F"/>
<path d="M38.7009 29.652C38.8973 29.4562 39.1724 29.3778 39.4474 29.3778C39.6438 29.3387 39.8403 29.4953 39.8796 29.7304C39.8796 29.7695 39.8796 29.8087 39.8796 29.8479V31.1013H39.7224V29.8479C39.7224 29.5737 39.5653 29.5345 39.3688 29.5345C39.1331 29.5737 38.8973 29.652 38.7009 29.8087V31.1013H38.5044V29.3778H38.6223C38.7009 29.3778 38.7009 29.3778 38.7009 29.5345V29.652Z" fill="#03435F"/>
<path d="M64.711 31.023V28.7511H64.8682V29.7695H66.2041V28.7511H66.3612V31.023H66.2041V29.9262H64.8682V31.023H64.711Z" fill="#05445F"/>
<path d="M67.5792 30.9056C67.7757 30.9056 67.9721 30.8664 68.09 30.7097H68.1686V30.8272C67.9721 30.9447 67.7757 31.0231 67.5399 31.0231C67.1077 31.0622 66.7541 30.7097 66.7541 30.318C66.7541 30.2788 66.7541 30.2397 66.7541 30.1613C66.7148 29.7304 66.9899 29.3387 67.422 29.2996C67.4613 29.2996 67.4613 29.2996 67.5006 29.2996C67.9328 29.2996 68.2079 29.5346 68.2079 30.083C68.2079 30.1221 68.2079 30.1613 68.2079 30.1613H66.9113C66.9113 30.6705 67.147 30.9056 67.5792 30.9056ZM66.9113 30.083H68.0114C68.0114 29.6129 67.7757 29.4562 67.4613 29.4562C67.147 29.4562 66.9506 29.6521 66.9113 30.083Z" fill="#05445F"/>
<path d="M69.5437 30.788C69.3866 30.9447 69.1901 31.0622 68.9544 31.0231C68.6794 31.0622 68.4436 30.8664 68.4043 30.5922C68.4043 30.553 68.4043 30.553 68.4043 30.5138C68.4043 30.1613 68.6794 30.0046 69.0723 30.0046C69.2294 30.0046 69.3866 30.0046 69.5044 30.0438V29.7304C69.5044 29.4562 69.3473 29.3779 69.0723 29.3779C68.8758 29.3779 68.6794 29.4171 68.5615 29.5346H68.4829V29.4171C68.6794 29.2995 68.8758 29.2604 69.0723 29.2604C69.4259 29.2604 69.6616 29.3779 69.6616 29.7304V30.9839H69.6223C69.5437 30.9839 69.5044 30.9447 69.5044 30.8272L69.5437 30.788ZM69.5437 30.6705V30.2396C69.3866 30.2005 69.2687 30.2005 69.1115 30.2005C68.7972 30.2005 68.6008 30.318 68.6008 30.553C68.6008 30.7489 68.7186 30.9055 68.9151 30.9447C68.9544 30.9447 68.9544 30.9447 68.9937 30.9447C69.2294 30.9055 69.4259 30.8272 69.5437 30.6705Z" fill="#05445F"/>
<path d="M70.1724 31.023V28.7511H70.251C70.3295 28.7511 70.3688 28.7511 70.3688 28.9078V31.0622L70.1724 31.023Z" fill="#05445F"/>
<path d="M70.6046 29.3387H70.8403V28.8687H70.9975V29.3387H71.469V29.4562H70.9975V30.6313C70.9975 30.8272 71.0761 30.9055 71.2725 30.9055H71.469V31.023C71.3904 31.023 71.3118 31.0622 71.2332 31.0622C70.9582 31.0622 70.8403 30.9447 70.8403 30.6705V29.4562H70.6046V29.3387Z" fill="#05445F"/>
<path d="M71.9405 29.6128C72.1369 29.417 72.4119 29.3387 72.687 29.3387C72.9227 29.2995 73.1192 29.4562 73.1192 29.6912C73.1192 29.7304 73.1192 29.7695 73.1192 29.8087V31.0622H72.962V29.8087C72.962 29.5345 72.8048 29.4562 72.6084 29.4562C72.3726 29.4562 72.0976 29.5737 71.9405 29.7304V31.023H71.7833V28.7511H71.8619C71.9405 28.7511 71.9797 28.7511 71.9797 28.9078L71.9405 29.6128Z" fill="#05445F"/>
<path d="M74.1799 31.023V28.8686H73.4334V28.7119H75.1229V28.8686H74.3764V31.023H74.1799Z" fill="#05445F"/>
<path d="M75.7909 30.9056C75.9873 30.9056 76.1838 30.8664 76.3016 30.7097H76.3802V30.8272C76.2231 30.9447 75.9873 31.0231 75.7516 31.0231C75.3194 31.0622 74.9658 30.7489 74.9658 30.318C74.9658 30.2788 74.9658 30.2005 74.9658 30.1613C74.9265 29.7304 75.2015 29.3387 75.6337 29.2996C75.673 29.2996 75.673 29.2996 75.7123 29.2996C76.1445 29.2996 76.4195 29.5346 76.4195 30.083C76.4195 30.1221 76.4195 30.1613 76.4195 30.1613H75.1229C75.1229 30.6705 75.3587 30.9056 75.7909 30.9056ZM75.1622 30.083H76.3016C76.3016 29.6129 76.0659 29.4562 75.7516 29.4562C75.4373 29.4562 75.2015 29.6521 75.1622 30.083Z" fill="#05445F"/>
<path d="M76.6553 30.2004C76.616 29.7695 76.9303 29.3778 77.3625 29.3386C77.4018 29.3386 77.4411 29.3386 77.4804 29.3386C77.6768 29.3386 77.8733 29.3778 78.0304 29.4953V29.6128H77.9518C77.834 29.4953 77.6768 29.4561 77.5196 29.4561C77.1267 29.4561 76.891 29.7303 76.891 30.2004C76.891 30.6704 77.1267 30.9446 77.5196 30.9446C77.7161 30.9446 77.8733 30.8663 77.9911 30.7488H78.0697V30.8663C77.9125 31.023 77.7161 31.0621 77.4804 31.0621C77.0482 31.1013 76.6946 30.7488 76.6946 30.3179C76.616 30.2787 76.616 30.2395 76.6553 30.2004Z" fill="#05445F"/>
<path d="M78.5019 29.6128C78.6983 29.417 78.9734 29.3387 79.2484 29.3387C79.4841 29.2995 79.6806 29.4562 79.6806 29.6912C79.6806 29.7304 79.6806 29.7695 79.6806 29.8087V31.0622H79.5234V29.8087C79.5234 29.5345 79.3663 29.4562 79.1698 29.4562C78.9341 29.4953 78.6591 29.5737 78.5019 29.7304V31.023H78.3447V28.7511H78.384C78.4626 28.7511 78.5019 28.7511 78.5019 28.9078V29.6128Z" fill="#05445F"/>
<path d="M80.9772 28.7511H81.5666C82.038 28.7511 82.3917 28.9078 82.3917 29.417C82.3917 29.887 82.0773 30.0829 81.5666 30.0829H81.1344V31.023H80.9772V28.7511ZM81.1344 29.9262H81.5666C81.9595 29.9262 82.1952 29.8087 82.1952 29.417C82.1952 29.0253 81.9595 28.9078 81.5666 28.9078H81.1344V29.9262Z" fill="#05445F"/>
<path d="M82.9024 29.652C83.0203 29.4561 83.256 29.3386 83.4525 29.3386C83.4918 29.3386 83.4918 29.3386 83.5311 29.3386V29.4561H83.4525C83.2167 29.4561 83.0203 29.5736 82.9024 29.7695V31.023H82.7453V29.3386H82.8238C82.9024 29.3386 82.9024 29.3778 82.9024 29.5345V29.652Z" fill="#05445F"/>
<path d="M83.6489 30.2004C83.6882 29.7695 84.0811 29.4562 84.5133 29.4953C84.9455 29.5345 85.2599 29.9262 85.2206 30.3571C85.1813 30.7488 84.8277 31.0622 84.4348 31.0622C84.0026 31.0622 83.6489 30.7488 83.6489 30.3179C83.6097 30.2396 83.6489 30.2396 83.6489 30.2004ZM85.0634 30.2004C85.0634 29.7304 84.8277 29.4562 84.4348 29.4562C84.0419 29.4562 83.8061 29.7304 83.8061 30.2004C83.8061 30.6705 84.0419 30.9447 84.4348 30.9447C84.8277 30.9055 85.0634 30.6705 85.0634 30.2004Z" fill="#05445F"/>
<path d="M86.7528 30.7488C86.5957 30.9446 86.3599 31.0622 86.1242 31.0622C85.7706 31.0622 85.4563 30.8663 85.4563 30.2004C85.4563 29.5737 85.8492 29.3387 86.1635 29.3387C86.3599 29.3387 86.5957 29.417 86.7135 29.5345V28.7511H86.7528C86.8314 28.7511 86.8707 28.7511 86.8707 28.9078V31.0622H86.7921C86.7135 31.0622 86.7135 31.023 86.7135 30.8663L86.7528 30.7488ZM86.7528 30.5921V29.6912C86.635 29.5345 86.4385 29.4562 86.2028 29.4562C85.9277 29.4562 85.6134 29.6128 85.6134 30.2004C85.6134 30.788 85.8885 30.9055 86.1242 30.9055C86.3599 30.9055 86.5957 30.788 86.7528 30.5921Z" fill="#05445F"/>
<path d="M88.5209 30.788C88.3244 30.9447 88.0494 31.0622 87.8137 31.0622C87.5386 31.0622 87.3422 30.9447 87.3422 30.6314V29.3387H87.4993V30.5922C87.4993 30.8664 87.6565 30.9056 87.8137 30.9056C88.0494 30.9056 88.3244 30.788 88.4816 30.6314V29.2996H88.6388V30.9839H88.5602C88.4816 30.9839 88.4816 30.9447 88.4816 30.788H88.5209Z" fill="#05445F"/>
<path d="M89.071 30.2004C89.0317 29.7695 89.346 29.3778 89.7782 29.3386C89.8175 29.3386 89.8568 29.3386 89.8961 29.3386C90.0925 29.3386 90.289 29.3778 90.4461 29.4953V29.6128H90.3675C90.2497 29.4953 90.0925 29.4561 89.8961 29.4561C89.5032 29.4561 89.2674 29.7303 89.2674 30.2004C89.2674 30.6704 89.5032 30.9446 89.8961 30.9446C90.0925 30.9446 90.2497 30.8663 90.4068 30.7488H90.4854V30.8663C90.3283 31.023 90.1318 31.0621 89.8961 31.0621C89.4639 31.1013 89.1103 30.7488 89.1103 30.3179C89.0317 30.2787 89.0317 30.2395 89.071 30.2004Z" fill="#05445F"/>
<path d="M90.564 29.3387H90.7997V28.8687H90.9569V29.3387H91.4284V29.4562H90.9569V30.6313C90.9569 30.8272 91.0355 30.9055 91.2319 30.9055H91.4284V31.023C91.3498 31.023 91.2712 31.0622 91.1926 31.0622C90.9176 31.0622 90.7997 30.9447 90.7997 30.6705V29.4562H90.564V29.3387Z" fill="#05445F"/>
<path d="M19.6451 29.3779C19.763 29.2212 19.9987 29.0645 20.3131 29.0645C20.6274 29.0645 20.981 29.2603 20.981 29.9262C20.981 30.6313 20.5881 30.8272 20.2345 30.8272C19.9594 30.8272 19.763 30.7488 19.6451 30.6313C19.6451 30.7488 19.6058 30.8272 19.5273 30.8272H19.488V28.4769H19.5665C19.6451 28.4769 19.6844 28.5161 19.6844 28.6336V29.3779H19.6451ZM19.6451 29.5345V30.4355C19.763 30.5921 19.9594 30.6705 20.1952 30.6705C20.4702 30.6705 20.7845 30.5138 20.7845 29.9262C20.7845 29.3387 20.5095 29.182 20.2738 29.182C19.9987 29.182 19.8023 29.3779 19.6451 29.5345Z" fill="#04435F"/>
<path d="M21.5704 31.2972L21.8454 30.7096L21.1382 29.1428V29.1036H21.2953L21.924 30.5138L22.5133 29.1036H22.6705V29.1428L21.7275 31.3364H21.5704V31.2972Z" fill="#04435F"/>
<path d="M23.2598 29.8088C23.2598 29.6129 23.2991 29.417 23.3777 29.2604C23.4563 29.1037 23.5349 28.947 23.6527 28.8687C23.7706 28.7511 23.8885 28.6728 24.0064 28.6336C24.1635 28.5945 24.2814 28.5553 24.4386 28.5553C24.7922 28.5553 25.0672 28.6728 25.2636 28.8687C25.4208 29.0645 25.5387 29.3779 25.5387 29.7696C25.5387 29.8088 25.5387 29.8479 25.5387 29.8871C25.5387 29.9263 25.5387 29.9654 25.5387 30.0046H23.9671C23.9671 30.1613 24.0456 30.2396 24.1635 30.3571C24.2814 30.4355 24.4386 30.4747 24.635 30.4747C24.7529 30.4747 24.8707 30.4747 24.9886 30.4355C25.1065 30.3963 25.2244 30.3963 25.3029 30.3571L25.3815 30.9055C25.3422 30.9055 25.3029 30.9447 25.2244 30.9447C25.1458 30.9447 25.1065 30.9839 25.0279 30.9839C24.9493 30.9839 24.8707 31.023 24.7922 31.023C24.7136 31.023 24.635 31.023 24.5171 31.023C24.2814 31.023 24.1242 30.9839 23.9671 30.9447C23.8099 30.8664 23.6527 30.788 23.5742 30.6705C23.4563 30.553 23.3777 30.4355 23.3384 30.2788C23.2991 30.1613 23.2598 30.0046 23.2598 29.8088ZM24.8707 29.5737C24.8707 29.5346 24.8707 29.4562 24.8315 29.4171C24.8315 29.3779 24.7922 29.2995 24.7529 29.2604C24.7136 29.2212 24.6743 29.182 24.635 29.1429C24.5957 29.1037 24.5171 29.1037 24.4386 29.1037C24.36 29.1037 24.2814 29.1037 24.2421 29.1429C24.2028 29.182 24.1242 29.2212 24.0849 29.2604C24.0456 29.2995 24.0064 29.3387 24.0064 29.4171C23.9671 29.4562 23.9671 29.4954 23.9671 29.5737H24.8707Z" fill="#FE110A"/>
<path d="M26.0494 28.2419C26.0494 28.2811 26.0494 28.2811 26.0494 28.3203C26.0494 28.3595 26.0494 28.3595 26.0494 28.3595C26.0494 28.477 26.0101 28.5945 25.9708 28.712C25.9316 28.8295 25.8923 28.9078 25.8137 28.9862L25.5387 28.947C25.5779 28.8687 25.6172 28.7903 25.6172 28.6728C25.6565 28.5945 25.6565 28.477 25.6565 28.3986C25.6565 28.3986 25.6565 28.3986 25.6565 28.3595V28.3203V28.2811V28.2419H26.0494Z" fill="#FE110A"/>
<path d="M27.6996 31.1014C27.1888 31.1014 26.7959 30.9447 26.5209 30.6705C26.2459 30.3963 26.128 29.9654 26.128 29.4562C26.128 29.182 26.1673 28.947 26.2459 28.7511C26.3245 28.5553 26.4423 28.3594 26.5995 28.2419C26.7566 28.0852 26.9138 28.0069 27.1103 27.9285C27.3067 27.8502 27.5425 27.811 27.7782 27.811C27.8961 27.811 28.0532 27.811 28.1318 27.8502C28.2497 27.8894 28.3283 27.8894 28.4068 27.9285C28.4854 27.9677 28.564 27.9677 28.6033 28.0069C28.6426 28.0461 28.6819 28.0461 28.7212 28.0852L28.5247 28.5944C28.4068 28.5553 28.3283 28.5161 28.1711 28.4769C28.0532 28.4378 27.8961 28.4378 27.7389 28.4378C27.621 28.4378 27.5032 28.4378 27.4246 28.4769C27.3067 28.5161 27.2281 28.5553 27.1496 28.6728C27.071 28.7511 26.9924 28.8686 26.9531 28.9862C26.9138 29.1037 26.8745 29.2603 26.8745 29.4562C26.8745 29.6129 26.8745 29.7304 26.9138 29.8479C26.9531 29.9654 26.9924 30.0829 27.071 30.1613C27.1496 30.2396 27.2281 30.3179 27.346 30.3963C27.4639 30.4355 27.621 30.4746 27.7782 30.4746C27.8961 30.4746 27.9746 30.4746 28.0532 30.4746C28.1318 30.4746 28.2104 30.4355 28.289 30.4355C28.3676 30.4355 28.4068 30.3963 28.4461 30.3963C28.4854 30.3571 28.5247 30.3571 28.564 30.3179L28.7605 30.9055C28.6426 30.9838 28.5247 31.023 28.3283 31.0622C28.1711 31.0622 27.9746 31.1014 27.6996 31.1014Z" fill="#05445F"/>
<path d="M29.8999 31.0622C29.7034 31.0622 29.5463 31.023 29.4284 30.9838C29.3105 30.9447 29.1926 30.9055 29.1141 30.8271C29.0355 30.7488 28.9962 30.6705 28.9569 30.553C28.9176 30.4354 28.9176 30.3179 28.9176 30.2004V27.5368L29.6248 27.4193V30.0437C29.6248 30.1221 29.6248 30.1612 29.6248 30.2004C29.6248 30.2396 29.6641 30.2788 29.6641 30.3179C29.7034 30.3571 29.7427 30.3963 29.782 30.3963C29.8213 30.4354 29.8999 30.4354 29.9785 30.4354L29.8999 31.0622Z" fill="#05445F"/>
<path d="M31.0786 28.5161C31.275 28.5161 31.4322 28.5553 31.5893 28.5945C31.7072 28.6336 31.8251 28.712 31.9037 28.7903C31.9822 28.8686 32.0608 28.9862 32.0608 29.1037C32.1001 29.2212 32.1001 29.3779 32.1001 29.4954V30.9447C31.9822 30.9839 31.8644 30.9839 31.7072 31.023C31.5501 31.0622 31.3143 31.0622 31.0786 31.0622C30.9214 31.0622 30.7642 31.0622 30.6464 31.023C30.5285 30.9839 30.4106 30.9447 30.3321 30.9055C30.2535 30.8272 30.1749 30.7488 30.1356 30.6705C30.0963 30.553 30.057 30.4355 30.057 30.2788C30.057 30.1221 30.0963 30.0046 30.1356 29.9263C30.1749 29.8087 30.2535 29.7304 30.3713 29.6912C30.4499 29.6521 30.5678 29.5737 30.6857 29.5737C30.8035 29.5345 30.9214 29.5345 31.0786 29.5345C31.1572 29.5345 31.2357 29.5345 31.3143 29.5345C31.3929 29.5345 31.4322 29.5345 31.4715 29.5737V29.4954C31.4715 29.3779 31.4322 29.2995 31.3536 29.2212C31.275 29.1428 31.1572 29.1037 31 29.1037C30.8821 29.1037 30.7642 29.1037 30.6464 29.1428C30.5285 29.1428 30.4499 29.182 30.3321 29.2212L30.2535 28.6336C30.2928 28.6336 30.3321 28.5945 30.4106 28.5945C30.4892 28.5945 30.5285 28.5553 30.6071 28.5553C30.6857 28.5553 30.7642 28.5161 30.8428 28.5161C30.9214 28.5161 31 28.5161 31.0786 28.5161ZM31.1179 30.5138C31.1964 30.5138 31.2357 30.5138 31.3143 30.5138C31.3929 30.5138 31.4322 30.5138 31.4715 30.5138V30.0046C31.4322 30.0046 31.3929 30.0046 31.3536 30.0046C31.3143 30.0046 31.2357 30.0046 31.1964 30.0046C31.1179 30.0046 31.0786 30.0046 31 30.0046C30.9607 30.0046 30.8821 30.0438 30.8428 30.0438C30.8035 30.0829 30.7642 30.0829 30.725 30.1221C30.6857 30.1613 30.6857 30.2004 30.6857 30.2788C30.6857 30.3963 30.725 30.4746 30.8035 30.5138C30.9214 30.5138 31 30.5138 31.1179 30.5138Z" fill="#05445F"/>
<path d="M32.493 27.9677L33.2003 27.8502V28.5553H34.0254V29.1428H33.2003V30.0046C33.2003 30.1613 33.2396 30.2788 33.2788 30.3571C33.3181 30.4355 33.436 30.4746 33.5932 30.4746C33.6717 30.4746 33.7503 30.4746 33.8289 30.4355C33.9075 30.3963 33.9861 30.3963 34.0254 30.3963L34.1039 30.9447C34.0254 30.9839 33.9468 31.023 33.8289 31.023C33.711 31.0622 33.5932 31.0622 33.436 31.0622C33.2396 31.0622 33.0824 31.023 32.9645 30.9839C32.8467 30.9447 32.7288 30.8663 32.6502 30.788C32.5716 30.7097 32.5323 30.5922 32.493 30.4746C32.4538 30.3571 32.4538 30.2004 32.4538 30.0438V27.9677H32.493Z" fill="#05445F"/>
</g>
<defs>
<clipPath id="clip0">
<rect width="93" height="34" fill="white"/>
</clipPath>
</defs>
</svg>
